<svg width="163" height="41" viewBox="0 0 163 41" fill="none" xmlns="http://www.w3.org/2000/svg">
<path d="M21.4058 20.9819C21.4058 20.9819 17.8211 22.782 17.5575 25.8529C15.6941 22.1271 15.3435 19.4465 17.5575 14.7344C19.262 12.2018 21.9395 10.4428 24.4633 8.48685C27.6377 6.02671 30.5995 3.71188 31.4218 4.30425C32.0544 6.26322 32.687 15.158 30.9474 17.0111C27.5208 17.7523 22.4601 20.1877 21.4058 20.9819Z" fill="#3B82F6"/>
<path d="M19.6103 22.3707C20.8078 21.3439 21.4951 20.8843 22.7732 20.4647C24.1614 21.3295 26.9589 23.0696 27.0432 23.112C27.1276 23.1543 27.6758 23.7473 27.8867 24.065C28.0975 24.3826 28.0975 25.1239 28.0975 25.1239V35.0775C28.0975 35.0775 28.0975 35.554 27.6231 35.554C27.1486 35.554 26.6742 35.7129 26.4633 35.554C26.2525 35.3952 22.5097 31.6361 22.5097 31.6361C20.2426 29.6147 18.9498 28.4898 17.5544 26.1298C17.9678 24.5492 18.2725 23.6841 19.6103 22.3707Z" fill="#1F2937"/>
<path d="M10.6693 20.0181C10.6693 20.0181 14.254 18.218 14.5176 15.1471C16.381 18.8729 16.7317 21.5535 14.5176 26.2656C12.8131 28.7982 10.1356 30.5572 7.61182 32.5132C4.43745 34.9733 1.47561 37.2881 0.653303 36.6957C0.0207481 34.7368 -0.611864 25.842 1.12775 23.9889C4.55429 23.2477 9.615 20.8123 10.6693 20.0181Z" fill="#3B82F6"/>
<path d="M12.4648 18.6294C11.2673 19.6562 10.58 20.1158 9.30186 20.5354C7.91367 19.6706 5.11622 17.9305 5.03188 17.8882C4.94753 17.8458 4.39929 17.2528 4.18842 16.9351C3.97756 16.6175 3.97756 15.8762 3.97756 15.8762V5.92259C3.97756 5.92259 3.97756 5.44608 4.452 5.44608C4.92644 5.44608 5.40089 5.28725 5.61175 5.44608C5.82261 5.60492 9.56544 9.36401 9.56544 9.36401C11.8325 11.3854 13.1253 12.5103 14.5207 14.8703C14.1073 16.4509 13.8026 17.3161 12.4648 18.6294Z" fill="#1F2937"/>
<path d="M59.6913 10.9805V30H55.8766V17.6292L50.7811 30H47.8927L42.77 17.6292V30H38.9552V10.9805H43.2877L49.3369 25.1225L55.3861 10.9805H59.6913ZM70.1661 30.2452C68.7128 30.2452 67.4049 29.9273 66.2423 29.2915C65.0797 28.6376 64.1623 27.7202 63.4902 26.5394C62.8362 25.3587 62.5092 23.9962 62.5092 22.4522C62.5092 20.9081 62.8453 19.5457 63.5174 18.3649C64.2077 17.1841 65.1432 16.2758 66.324 15.64C67.5048 14.9861 68.8218 14.6591 70.275 14.6591C71.7283 14.6591 73.0453 14.9861 74.2261 15.64C75.4069 16.2758 76.3333 17.1841 77.0054 18.3649C77.6957 19.5457 78.0409 20.9081 78.0409 22.4522C78.0409 23.9962 77.6866 25.3587 76.9782 26.5394C76.2879 27.7202 75.3433 28.6376 74.1443 29.2915C72.9636 29.9273 71.6375 30.2452 70.1661 30.2452ZM70.1661 26.9209C70.8563 26.9209 71.5012 26.7574 72.1007 26.4304C72.7183 26.0853 73.2088 25.5767 73.5721 24.9045C73.9354 24.2324 74.1171 23.4149 74.1171 22.4522C74.1171 21.0171 73.7356 19.9181 72.9727 19.1551C72.2279 18.374 71.3105 17.9834 70.2206 17.9834C69.1306 17.9834 68.2132 18.374 67.4685 19.1551C66.7418 19.9181 66.3785 21.0171 66.3785 22.4522C66.3785 23.8873 66.7327 24.9954 67.4412 25.7765C68.1678 26.5394 69.0761 26.9209 70.1661 26.9209ZM84.654 17.2477C85.1444 16.4484 85.7802 15.8217 86.5614 15.3676C87.3606 14.9134 88.2689 14.6863 89.2862 14.6863V18.6919H88.278C87.0791 18.6919 86.1708 18.9734 85.5532 19.5366C84.9537 20.0997 84.654 21.0807 84.654 22.4794V30H80.8392V14.9043H84.654V17.2477ZM98.5588 30.2452C97.1055 30.2452 95.7976 29.9273 94.635 29.2915C93.4724 28.6376 92.555 27.7202 91.8829 26.5394C91.2289 25.3587 90.902 23.9962 90.902 22.4522C90.902 20.9081 91.238 19.5457 91.9101 18.3649C92.6004 17.1841 93.536 16.2758 94.7167 15.64C95.8975 14.9861 97.2145 14.6591 98.6678 14.6591C100.121 14.6591 101.438 14.9861 102.619 15.64C103.8 16.2758 104.726 17.1841 105.398 18.3649C106.088 19.5457 106.434 20.9081 106.434 22.4522C106.434 23.9962 106.079 25.3587 105.371 26.5394C104.681 27.7202 103.736 28.6376 102.537 29.2915C101.356 29.9273 100.03 30.2452 98.5588 30.2452ZM98.5588 26.9209C99.2491 26.9209 99.894 26.7574 100.493 26.4304C101.111 26.0853 101.602 25.5767 101.965 24.9045C102.328 24.2324 102.51 23.4149 102.51 22.4522C102.51 21.0171 102.128 19.9181 101.365 19.1551C100.621 18.374 99.7032 17.9834 98.6133 17.9834C97.5233 17.9834 96.606 18.374 95.8612 19.1551C95.1346 19.9181 94.7712 21.0171 94.7712 22.4522C94.7712 23.8873 95.1255 24.9954 95.8339 25.7765C96.5606 26.5394 97.4688 26.9209 98.5588 26.9209ZM113.047 17.0842C113.537 16.3939 114.209 15.8217 115.063 15.3676C115.935 14.8952 116.925 14.6591 118.033 14.6591C119.323 14.6591 120.486 14.977 121.521 15.6128C122.575 16.2486 123.401 17.1569 124.001 18.3376C124.618 19.5002 124.927 20.8536 124.927 22.3977C124.927 23.9417 124.618 25.3133 124.001 26.5122C123.401 27.693 122.575 28.6103 121.521 29.2643C120.486 29.9183 119.323 30.2452 118.033 30.2452C116.925 30.2452 115.944 30.0182 115.09 29.564C114.255 29.1099 113.573 28.5377 113.047 27.8474V37.1936H109.232V14.9043H113.047V17.0842ZM121.031 22.3977C121.031 21.4894 120.84 20.7083 120.458 20.0543C120.095 19.3822 119.604 18.8735 118.987 18.5284C118.387 18.1832 117.733 18.0107 117.025 18.0107C116.335 18.0107 115.681 18.1923 115.063 18.5556C114.464 18.9008 113.973 19.4094 113.592 20.0815C113.228 20.7537 113.047 21.5439 113.047 22.4522C113.047 23.3604 113.228 24.1507 113.592 24.8228C113.973 25.4949 114.464 26.0126 115.063 26.3759C115.681 26.7211 116.335 26.8937 117.025 26.8937C117.733 26.8937 118.387 26.712 118.987 26.3487C119.604 25.9854 120.095 25.4677 120.458 24.7955C120.84 24.1234 121.031 23.3241 121.031 22.3977ZM136.201 14.6863C137.345 14.6863 138.362 14.9407 139.253 15.4493C140.143 15.9398 140.833 16.6755 141.323 17.6564C141.832 18.6192 142.086 19.7818 142.086 21.1442V30H138.272V21.662C138.272 20.463 137.972 19.5457 137.372 18.9099C136.773 18.2559 135.955 17.9289 134.92 17.9289C133.866 17.9289 133.031 18.2559 132.413 18.9099C131.814 19.5457 131.514 20.463 131.514 21.662V30H127.699V9.8361H131.514V16.7845C132.004 16.1305 132.658 15.6219 133.476 15.2586C134.293 14.8771 135.202 14.6863 136.201 14.6863ZM152.417 30.2452C150.964 30.2452 149.656 29.9273 148.493 29.2915C147.331 28.6376 146.413 27.7202 145.741 26.5394C145.087 25.3587 144.76 23.9962 144.76 22.4522C144.76 20.9081 145.096 19.5457 145.769 18.3649C146.459 17.1841 147.394 16.2758 148.575 15.64C149.756 14.9861 151.073 14.6591 152.526 14.6591C153.979 14.6591 155.296 14.9861 156.477 15.64C157.658 16.2758 158.584 17.1841 159.257 18.3649C159.947 19.5457 160.292 20.9081 160.292 22.4522C160.292 23.9962 159.938 25.3587 159.229 26.5394C158.539 27.7202 157.594 28.6376 156.395 29.2915C155.215 29.9273 153.889 30.2452 152.417 30.2452ZM152.417 26.9209C153.107 26.9209 153.752 26.7574 154.352 26.4304C154.969 26.0853 155.46 25.5767 155.823 24.9045C156.187 24.2324 156.368 23.4149 156.368 22.4522C156.368 21.0171 155.987 19.9181 155.224 19.1551C154.479 18.374 153.562 17.9834 152.472 17.9834C151.382 17.9834 150.464 18.374 149.72 19.1551C148.993 19.9181 148.63 21.0171 148.63 22.4522C148.63 23.8873 148.984 24.9954 149.692 25.7765C150.419 26.5394 151.327 26.9209 152.417 26.9209Z" fill="#1F2937"/>
</svg>
